<svg id="Icon-Cookie" xmlns="http://www.w3.org/2000/svg" width="81" height="65" viewBox="0 0 81 65"> <defs> <style> .cls-1 { fill: #fc99e7; } .cls-1, .cls-2, .cls-3, .cls-4, .cls-5 { stroke: #fff; stroke-linecap: round; stroke-width: 0; fill-rule: evenodd; } .cls-2 { fill: #2149f3; } .cls-3, .cls-4 { fill: #fff; } .cls-3 { opacity: 0.1; } .cls-5 { fill: #ccc; } </style> </defs> <path id="Base" class="cls-1" d="M29,8s-6.443,14.3,8,13c0,0-2.2,17.405,15,9,0,0,.577,14.755,12.24,8.48A32.5,32.5,0,1,1,23.132.377C23.487,3.084,25,5.92,29,8Z"/> <path id="Over" class="cls-2" d="M61.343,39.688a32.479,32.479,0,0,1-52.8,13.769A32.473,32.473,0,0,1,21.821.829a9.667,9.667,0,0,0,3.039,3.792,10.473,10.473,0,0,0,1.913,1.935c-0.766,1.988-2.965,8.8,1.62,11.457,0.963,1.723,2.916,2.985,6.518,3.058,0.035,2.483.586,6.527,3.552,8.316,1.67,2.666,5.072,4.254,11.915,1.352,0.466,2.186,1.5,5.1,3.755,6.489C55.494,39.284,57.717,40.717,61.343,39.688Z"/> <path id="Shadow" class="cls-3" d="M26.127,61.7A32.385,32.385,0,0,1,8.543,53.457,32.447,32.447,0,0,1,9.228,8.852Z"/> <path id="Base-2" data-name="Base" class="cls-1" d="M11.5,33A2.5,2.5,0,1,1,9,35.5,2.5,2.5,0,0,1,11.5,33Zm16,18A2.5,2.5,0,1,1,25,53.5,2.5,2.5,0,0,1,27.5,51Zm0-18A2.5,2.5,0,1,1,25,35.5,2.5,2.5,0,0,1,27.5,33Zm-10-19A2.5,2.5,0,1,1,15,16.5,2.5,2.5,0,0,1,17.5,14Zm31,28A2.5,2.5,0,1,1,46,44.5,2.5,2.5,0,0,1,48.5,42Z"/> <path id="White" class="cls-4" d="M11.5,33a2.492,2.492,0,0,1,1.768.732L10,37l-0.807-.538A2.5,2.5,0,0,1,11.5,33Zm4.232-14.732a2.5,2.5,0,0,1,3.536-3.536Zm10,37a2.5,2.5,0,0,1,3.536-3.536Zm0-18a2.5,2.5,0,0,1,3.536-3.536ZM48.5,42a2.492,2.492,0,0,1,1.768.732L47,46l-0.807-.538A2.5,2.5,0,0,1,48.5,42Z"/> <path id="Ellipse" class="cls-5" d="M73,0a8,8,0,1,1-8,8A8,8,0,0,1,73,0Zm3.738,10.243-1.5,1.5L73,9.5l-2.243,2.243-1.5-1.5L71.5,8,69.262,5.757l1.5-1.5L73,6.5l2.243-2.243,1.5,1.5L74.5,8Z"/> </svg>
